{
	"asset":{
		"generator":"Khronos glTF Blender I/O v3.5.30",
		"version":"2.0"
	},
	"scene":0,
	"scenes":[
		{
			"name":"Scene",
			"nodes":[
				0,
				1,
				2,
				3
			]
		}
	],
	"nodes":[
		{
			"mesh":0,
			"name":"Cylinder.001",
			"rotation":[
				0.5,
				0.5,
				-0.5,
				0.5
			],
			"scale":[
				0.01730915531516075,
				0.01730915531516075,
				0.01730915531516075
			],
			"translation":[
				-0.0005135461688041687,
				0.708348274230957,
				0.00014005214325152338
			]
		},
		{
			"mesh":1,
			"name":"Sphere",
			"scale":[
				0.030018970370292664,
				0.011625122278928757,
				0.011625122278928757
			],
			"translation":[
				0.014227032661437988,
				0.7084369659423828,
				0.00014005214325152338
			]
		},
		{
			"mesh":2,
			"name":"Plane.002",
			"rotation":[
				0.08739666640758514,
				0.08739666640758514,
				-0.7016849517822266,
				0.7016851305961609
			],
			"scale":[
				0.08647787570953369,
				0.0864778533577919,
				0.08647787570953369
			],
			"translation":[
				0.020322129130363464,
				0.7083179950714111,
				0.00019256467930972576
			]
		},
		{
			"mesh":3,
			"name":"Cylinder",
			"scale":[
				0.01780599169433117,
				0.3550570607185364,
				0.01780599169433117
			],
			"translation":[
				-0.0005135461688041687,
				0.3455197811126709,
				0.00014005214325152338
			]
		}
	],
	"materials":[
		{
			"doubleSided":true,
			"name":"Blades",
			"pbrMetallicRoughness":{
				"baseColorFactor":[
					1,
					1,
					1,
					1
				],
				"metallicFactor":0,
				"roughnessFactor":0.5
			}
		}
	],
	"meshes":[
		{
			"name":"Cylinder.002",
			"primitives":[
				{
					"attributes":{
						"POSITION":0,
						"NORMAL":1
					},
					"indices":2,
					"material":0
				}
			]
		},
		{
			"name":"Sphere",
			"primitives":[
				{
					"attributes":{
						"POSITION":3,
						"NORMAL":4
					},
					"indices":5,
					"material":0
				}
			]
		},
		{
			"name":"Plane.002",
			"primitives":[
				{
					"attributes":{
						"POSITION":6,
						"NORMAL":7
					},
					"indices":8,
					"material":0
				}
			]
		},
		{
			"name":"Cylinder.001",
			"primitives":[
				{
					"attributes":{
						"POSITION":9,
						"NORMAL":10
					},
					"indices":11,
					"material":0
				}
			]
		}
	],
	"accessors":[
		{
			"bufferView":0,
			"componentType":5126,
			"count":50,
			"max":[
				0.9448763132095337,
				1,
				0.8090171813964844
			],
			"min":[
				-0.9448760151863098,
				-3.2918689250946045,
				-0.9882442951202393
			],
			"type":"VEC3"
		},
		{
			"bufferView":1,
			"componentType":5126,
			"count":50,
			"type":"VEC3"
		},
		{
			"bufferView":2,
			"componentType":5123,
			"count":288,
			"type":"SCALAR"
		},
		{
			"bufferView":3,
			"componentType":5126,
			"count":257,
			"max":[
				0.9999988079071045,
				1,
				0.9999990463256836
			],
			"min":[
				-1.6391277313232422e-07,
				-1,
				-0.9999997019767761
			],
			"type":"VEC3"
		},
		{
			"bufferView":4,
			"componentType":5126,
			"count":257,
			"type":"VEC3"
		},
		{
			"bufferView":5,
			"componentType":5123,
			"count":1440,
			"type":"SCALAR"
		},
		{
			"bufferView":6,
			"componentType":5126,
			"count":390,
			"max":[
				2.499671697616577,
				0.06750121712684631,
				3.3821585178375244
			],
			"min":[
				-3.3545126914978027,
				-3.332659730403975e-07,
				-2.421018123626709
			],
			"type":"VEC3"
		},
		{
			"bufferView":7,
			"componentType":5126,
			"count":390,
			"type":"VEC3"
		},
		{
			"bufferView":8,
			"componentType":5123,
			"count":2304,
			"type":"SCALAR"
		},
		{
			"bufferView":9,
			"componentType":5126,
			"count":482,
			"max":[
				0.9852036237716675,
				1,
				0.9852038621902466
			],
			"min":[
				-0.9852039813995361,
				-1,
				-0.985203742980957
			],
			"type":"VEC3"
		},
		{
			"bufferView":10,
			"componentType":5126,
			"count":482,
			"type":"VEC3"
		},
		{
			"bufferView":11,
			"componentType":5123,
			"count":960,
			"type":"SCALAR"
		}
	],
	"bufferViews":[
		{
			"buffer":0,
			"byteLength":600,
			"byteOffset":0,
			"target":34962
		},
		{
			"buffer":0,
			"byteLength":600,
			"byteOffset":600,
			"target":34962
		},
		{
			"buffer":0,
			"byteLength":576,
			"byteOffset":1200,
			"target":34963
		},
		{
			"buffer":0,
			"byteLength":3084,
			"byteOffset":1776,
			"target":34962
		},
		{
			"buffer":0,
			"byteLength":3084,
			"byteOffset":4860,
			"target":34962
		},
		{
			"buffer":0,
			"byteLength":2880,
			"byteOffset":7944,
			"target":34963
		},
		{
			"buffer":0,
			"byteLength":4680,
			"byteOffset":10824,
			"target":34962
		},
		{
			"buffer":0,
			"byteLength":4680,
			"byteOffset":15504,
			"target":34962
		},
		{
			"buffer":0,
			"byteLength":4608,
			"byteOffset":20184,
			"target":34963
		},
		{
			"buffer":0,
			"byteLength":5784,
			"byteOffset":24792,
			"target":34962
		},
		{
			"buffer":0,
			"byteLength":5784,
			"byteOffset":30576,
			"target":34962
		},
		{
			"buffer":0,
			"byteLength":1920,
			"byteOffset":36360,
			"target":34963
		}
	],
	"buffers":[
		{
			"byteLength":38280,
			"uri":"data:application/octet-stream;base64,"
		}
	]
}
